<svg width="24" height="24" viewBox="0 0 24 24" fill="none" xmlns="http://www.w3.org/2000/svg">
<path fill-rule="evenodd" clip-rule="evenodd" d="M15.0491 16.4633C13.7873 17.4274 12.2105 18 10.5 18C6.35786 18 3 14.6421 3 10.5C3 6.35786 6.35786 3 10.5 3C14.6421 3 18 6.35786 18 10.5C18 12.2105 17.4274 13.7873 16.4633 15.0491L20.7782 19.3639C21.1687 19.7545 21.1687 20.3876 20.7782 20.7781C20.3876 21.1687 19.7545 21.1687 19.364 20.7781L15.0491 16.4633ZM16 10.5C16 13.5376 13.5376 16 10.5 16C7.46243 16 5 13.5376 5 10.5C5 7.46243 7.46243 5 10.5 5C13.5376 5 16 7.46243 16 10.5Z" fill="white"/>
</svg>
